<?xml version="1.0" standalone="no"?>
<!DOCTYPE svg PUBLIC "-//W3C//DTD SVG 20010904//EN"
 "http://www.w3.org/TR/2001/REC-SVG-20010904/DTD/svg10.dtd">
<svg version="1.0" xmlns="http://www.w3.org/2000/svg"
 width="471.000000pt" height="471.000000pt" viewBox="0 0 471.000000 471.000000"
 preserveAspectRatio="xMidYMid meet">
<metadata>
Created by potrace 1.14, written by Peter Selinger 2001-2017
</metadata>
<g transform="translate(0.000000,471.000000) scale(0.100000,-0.100000)"
fill="#000000" stroke="none">
<path d="M310 3394 c-141 -38 -246 -142 -291 -285 -18 -58 -19 -100 -18 -753
0 -650 2 -695 19 -751 38 -118 132 -219 250 -268 55 -22 55 -22 760 -25 780
-2 758 -4 869 61 67 40 142 128 173 204 l23 58 2 706 c3 779 5 758 -60 867
-55 93 -135 153 -245 186 -78 23 -1397 23 -1482 0z m1503 -138 c64 -33 104
-73 139 -139 l23 -42 0 -710 c0 -705 0 -710 -21 -756 -32 -68 -99 -132 -167
-157 -56 -21 -67 -22 -740 -21 -648 0 -685 1 -732 19 -68 27 -118 70 -157 138
l-33 57 -2 700 c-2 690 -2 701 19 755 27 70 99 141 170 169 52 19 72 20 748
18 l695 -2 58 -29z"/>
<path d="M655 2763 c-57 -19 -127 -55 -132 -69 -2 -6 9 -40 26 -75 16 -35 28
-66 26 -69 -2 -4 -7 -29 -11 -56 -3 -27 -8 -52 -10 -55 -3 -5 -15 -79 -29
-174 -3 -22 -9 -65 -14 -95 -14 -82 -8 -190 12 -227 36 -67 133 -83 224 -38
l51 26 -16 32 c-26 49 -22 214 7 358 22 110 34 149 44 139 3 -3 8 -45 11 -95
22 -301 77 -439 168 -429 49 6 95 23 109 41 8 8 24 60 36 115 33 148 135 368
171 368 8 0 12 -6 8 -15 -16 -42 -49 -292 -50 -375 -1 -108 14 -149 64 -175
45 -23 118 -19 177 10 l51 26 -15 30 c-30 60 -27 160 12 369 62 333 65 378 33
423 -31 42 -196 24 -282 -31 -94 -60 -188 -182 -252 -330 -35 -81 -43 -93 -45
-69 -1 9 -2 20 -3 25 -1 4 -6 34 -10 67 -28 221 -83 330 -178 356 -49 13 -132
10 -183 -8z"/>
<path d="M2618 2812 c-2 -10 -4 -208 -3 -442 l0 -425 68 -3 67 -3 0 47 0 48
28 -26 c68 -64 191 -93 282 -67 25 7 47 13 50 13 11 2 77 52 98 76 94 102 113
279 46 413 -31 64 -57 92 -112 124 -117 69 -270 54 -364 -34 l-26 -25 0 133
c0 74 -1 146 -1 160 -1 26 -3 26 -65 27 -52 0 -65 -3 -68 -16z m444 -353 c159
-104 98 -392 -86 -407 -68 -5 -113 9 -156 51 -41 40 -59 82 -64 150 -7 98 41
188 118 223 48 22 143 13 188 -17z"/>
<path d="M3670 2608 c-148 -22 -255 -128 -279 -274 -26 -164 42 -304 178 -372
49 -24 67 -27 151 -27 83 1 102 4 152 28 228 111 252 452 43 594 -64 43 -161
63 -245 51z m151 -145 c19 -10 47 -38 63 -62 23 -35 29 -55 31 -114 4 -85 -15
-140 -67 -187 -92 -85 -242 -59 -298 50 -23 45 -31 137 -17 195 32 128 173
186 288 118z"/>
<path d="M4126 2588 c4 -7 44 -69 87 -138 44 -69 88 -139 98 -157 l18 -31
-105 -159 -104 -158 68 -3 c63 -3 68 -1 89 25 13 15 23 31 23 34 0 4 21 41 46
83 l46 76 17 -22 c10 -13 42 -62 72 -110 l54 -88 78 0 c60 0 76 3 71 13 -4 6
-31 48 -59 92 -29 44 -73 113 -99 153 l-47 74 23 36 c12 20 56 89 98 152 42
63 79 121 84 128 5 9 -10 12 -64 12 l-71 0 -27 -45 c-15 -24 -45 -74 -68 -111
l-41 -66 -69 111 -69 111 -78 0 c-60 0 -76 -3 -71 -12z"/>
</g>
</svg>
